<svg xmlns="http://www.w3.org/2000/svg" xmlns:xlink="http://www.w3.org/1999/xlink" version="1.1" viewBox="0 0 256 256" >

<defs>
</defs>
<g style="stroke: none; stroke-width: 0; stroke-dasharray: none; stroke-linecap: butt; stroke-linejoin: miter; stroke-miterlimit: 10; fill=#228B22; fill-rule: nonzero; opacity: 1;" transform="translate(1.4065934065934016 1.4065934065934016) scale(2.81 2.81)" >
	<path d="M 75.322 65.125 l -9.791 -10.796 l 4.809 -2.621 c 0.517 -0.281 0.883 -0.776 1.002 -1.352 c 0.118 -0.575 -0.021 -1.175 -0.385 -1.638 l -9.449 -12.068 l 3.751 -2.131 c 0.528 -0.3 0.892 -0.825 0.988 -1.427 c 0.095 -0.601 -0.089 -1.213 -0.499 -1.662 l -8.145 -8.915 l 3.862 -2.634 c 0.484 -0.33 0.798 -0.855 0.862 -1.437 c 0.063 -0.582 -0.132 -1.163 -0.533 -1.589 L 46.456 0.601 c -0.756 -0.801 -2.154 -0.801 -2.911 0 L 28.207 16.856 c -0.402 0.426 -0.597 1.007 -0.534 1.589 c 0.063 0.582 0.378 1.107 0.862 1.437 l 3.862 2.634 l -8.145 8.915 c -0.41 0.449 -0.594 1.061 -0.499 1.662 c 0.095 0.601 0.459 1.126 0.988 1.427 l 3.751 2.131 l -9.45 12.068 c -0.362 0.463 -0.503 1.063 -0.384 1.638 c 0.119 0.576 0.485 1.071 1.002 1.352 l 4.81 2.622 l -9.791 10.795 c -0.402 0.443 -0.585 1.043 -0.497 1.636 c 0.087 0.592 0.435 1.114 0.948 1.422 c 6.403 3.852 14.642 6.441 22.972 7.307 v 12.508 c 0 1.105 0.896 2.001 2.001 2.001 h 9.798 c 1.105 0 2.001 -0.896 2.001 -2.001 V 75.486 c 8.331 -0.871 16.569 -3.451 22.972 -7.302 c 0.513 -0.309 0.861 -0.83 0.948 -1.422 C 75.906 66.169 75.724 65.569 75.322 65.125 z" style="stroke: none; stroke-width: 1; stroke-dasharray: none; stroke-linecap: butt; stroke-linejoin: miter; stroke-miterlimit: 10; fill: #62cB62; fill-rule: nonzero; opacity: 1;" transform=" matrix(1 0 0 1 0 0) " stroke-linecap="round" />
</g>
</svg>