<svg xmlns="http://www.w3.org/2000/svg" xmlns:xlink="http://www.w3.org/1999/xlink" viewBox="0 0 34 34"><g class="b" transform="translate(-144 -13)"><g transform="translate(145.967 13)"><path class="c" d="M30.065,18.714V32.279c0,1.279-.44,1.721-1.69,1.721H1.744C.517,34,0,33.506,0,32.3V5.089A1.7,1.7,0,0,1,1.823,3.251C3.076,3.232,4.33,3.2,5.58,3.264c.717.036.917-.226.822-.88a3.913,3.913,0,0,1,0-.653C6.429.538,7.014-.013,8.239,0,9.262.012,9.786.6,9.794,1.746c.017,1.5.017,1.5,1.558,1.5,2.861,0,5.722-.012,8.576.01.516,0,.77-.11.693-.673a5.435,5.435,0,0,1,0-.9C20.666.5,21.258-.021,22.512,0c.974.017,1.491.605,1.506,1.714.021,1.531.021,1.531,1.541,1.531.872,0,1.743-.008,2.614,0a1.679,1.679,0,0,1,1.894,1.9Q30.065,11.933,30.065,18.714ZM15.013,31.078H25.305c1.341,0,1.761-.406,1.761-1.761q.009-7.923,0-15.846c0-1.345-.423-1.768-1.761-1.769q-10.293-.009-20.586,0C3.432,11.7,3,12.134,3,13.426Q2.989,21.4,3,29.363c0,1.3.431,1.713,1.718,1.714Q9.866,31.083,15.013,31.078ZM9.794,6.069V7.586A1.7,1.7,0,0,1,8.117,9.475,1.734,1.734,0,0,1,6.4,7.6c-.01-.461,0-.921,0-1.575-.954,1.355-.8,2.678.242,3.532a2.4,2.4,0,0,0,3.181-.2A2.37,2.37,0,0,0,9.794,6.069Zm10.824.124a2.35,2.35,0,0,0,.21,3.3,2.414,2.414,0,0,0,3.308-.22,2.275,2.275,0,0,0-.12-3.146c0,.55.008,1.064,0,1.576A1.68,1.68,0,0,1,22.39,9.481a1.727,1.727,0,0,1-1.767-1.745c-.021-.48,0-.955,0-1.543Z"></path><path class="c" d="M12.274,29.09a1.01,1.01,0,0,1-.812-.408Q7.7,24.76,3.952,20.833a.767.767,0,0,1,.032-1.21c.473-.487.983-.941,1.483-1.4s.9-.429,1.381.089c1.579,1.691,3.225,3.32,4.8,5.015.527.566.865.6,1.437.037,3.3-3.248,6.632-6.459,9.958-9.684.821-.793,1.161-.781,1.971.034,1.686,1.7,1.686,1.7-.041,3.376l-11.6,11.279A2.068,2.068,0,0,1,12.274,29.09Z"></path></g></g>
</svg>