<svg version="1.1" id="Layer_1" xmlns="http://www.w3.org/2000/svg" xmlns:xlink="http://www.w3.org/1999/xlink" x="0px" y="0px"
	 width="100%" viewBox="0 0 512 512" enable-background="new 0 0 512 512" xml:space="preserve">
<path d="
M1.000002,274.468658 
	C1.667593,272.843811 2.611668,271.765503 2.962592,270.520081 
	C13.529227,233.019409 37.103115,208.525467 75.232826,199.163162 
	C83.861801,197.044403 92.984680,196.343994 101.906960,196.135513 
	C120.891548,195.691925 139.893707,195.999863 158.888657,196.000351 
	C160.054993,196.000381 161.235184,195.890106 162.385193,196.028442 
	C166.849960,196.565475 169.094437,198.079422 169.242035,203.627701 
	C169.594543,216.876816 174.155045,229.225296 181.111008,240.422653 
	C185.638016,247.709991 191.244949,254.326477 196.603973,261.562012 
	C193.618179,262.830780 190.087463,264.465546 186.461166,265.849884 
	C165.431519,273.877899 149.075363,287.723724 135.982040,305.817322 
	C126.380157,319.086060 120.467606,333.953857 117.243652,349.794708 
	C115.589111,357.924255 115.482040,366.400909 115.066551,374.740204 
	C114.736359,381.367615 115.000000,388.024597 115.000000,394.500214 
	C76.064888,392.592560 38.670410,384.180847 1.403710,373.000122 
	C1.000000,340.312439 1.000000,307.624878 1.000002,274.468658 
z"/>
<path d="
M513.000000,371.531372 
	C506.756592,374.437958 500.645477,377.322174 494.242035,379.220306 
	C481.173035,383.094238 468.088501,387.158081 454.742920,389.784637 
	C442.787537,392.137604 430.472351,392.658875 418.317902,394.005951 
	C414.431854,394.436646 410.552063,394.923828 406.000000,395.464691 
	C406.000000,385.093079 406.342896,375.314789 405.931396,365.568359 
	C404.958832,342.531677 397.190277,321.819733 383.694885,303.185669 
	C372.677368,287.972961 358.337402,276.735626 341.698944,268.369110 
	C336.330048,265.669434 330.566620,263.754272 324.452728,261.263977 
	C342.325653,243.095444 352.215820,221.739761 353.209320,196.000000 
	C354.834320,196.000000 356.443756,196.000000 358.053162,196.000000 
	C376.215668,196.000000 394.381073,195.796738 412.539825,196.057968 
	C430.201569,196.312027 447.337830,199.274734 463.026642,208.013535 
	C478.267242,216.502686 490.584534,228.000885 499.634796,243.056671 
	C505.327820,252.527481 509.006348,262.698303 511.648071,273.313110 
	C512.158386,275.363647 512.040161,277.570587 512.605957,279.852692 
	C513.000000,310.354218 513.000000,340.708466 513.000000,371.531372 
z"/>
<path d="
M350.721069,293.225983 
	C370.824127,308.790222 382.998901,328.876831 387.900757,353.344574 
	C388.827820,357.972107 388.936310,362.817566 388.954163,367.564270 
	C389.050781,393.216766 388.930603,418.870239 389.082031,444.522217 
	C389.102478,447.986328 388.116516,449.675354 384.856384,451.108002 
	C367.708008,458.643494 350.012207,464.375397 331.458954,466.915283 
	C315.955170,469.037720 300.355408,470.522339 284.765350,471.925354 
	C276.388580,472.679230 267.906281,473.321594 259.536346,472.854187 
	C245.178406,472.052429 230.764557,471.033173 216.568741,468.843719 
	C197.122681,465.844513 177.809692,461.900391 158.539551,457.882263 
	C150.561813,456.218781 142.797119,453.450653 135.050049,450.844482 
	C133.735535,450.402222 132.137329,448.238739 132.128113,446.860687 
	C131.954224,420.875824 131.469696,394.875275 132.165848,368.907928 
	C132.735535,347.658417 138.991547,327.816742 152.561722,311.060760 
	C167.614227,292.474487 186.588821,279.849518 210.643173,276.045441 
	C217.237534,275.002594 223.937134,274.170837 230.598587,274.091309 
	C251.417755,273.842651 272.241791,274.020844 293.063904,273.994019 
	C312.880402,273.968475 330.916168,279.648285 347.272522,290.775146 
	C348.338196,291.500092 349.394196,292.239319 350.721069,293.225983 
z"/>
<path d="
M198.236389,236.732971 
	C189.260559,223.487076 184.799774,209.041885 185.143539,193.552200 
	C185.557022,174.920334 191.711655,158.301544 204.312164,144.026886 
	C216.757446,129.928070 232.312607,121.306458 250.495377,119.273628 
	C281.584137,115.797897 308.790649,127.637436 325.988190,155.758560 
	C334.835266,170.225098 337.491516,186.150223 335.844330,202.624420 
	C334.272461,218.345963 328.124725,232.332230 317.333435,244.308792 
	C305.671875,257.251190 291.411804,265.624329 274.508728,268.603973 
	C256.499054,271.778687 239.157440,268.991364 223.003098,259.626587 
	C213.063293,253.864426 204.734192,246.635757 198.236389,236.732971 
z"/>
<path d="
M54.000000,123.975845 
	C53.155113,112.483978 53.952808,101.698746 57.929741,91.203072 
	C67.579163,65.736923 85.434944,49.447144 111.907860,43.058422 
	C134.127945,37.696041 154.876892,42.159653 173.294937,55.217808 
	C189.490173,66.700020 199.721786,82.630905 202.919937,102.500816 
	C203.824097,108.118187 203.949097,113.900764 203.913010,119.604294 
	C203.902786,121.219772 202.397095,123.236221 201.007233,124.370064 
	C184.099960,138.163040 174.830414,156.363464 169.910324,177.207214 
	C169.494720,178.967896 168.162720,181.021072 166.650192,181.934784 
	C152.665283,190.383057 137.276581,193.621048 121.213806,191.886047 
	C87.878738,188.285416 60.381680,163.737503 54.997559,130.661911 
	C54.659817,128.587143 54.332283,126.510689 54.000000,123.975845 
z"/>
<path d="
M460.975525,117.899551 
	C459.970764,124.077019 459.363953,129.897690 457.938141,135.510300 
	C451.591949,160.492020 436.132538,177.534241 412.243988,187.005081 
	C393.875000,194.287674 375.551178,193.381058 357.081604,187.085159 
	C350.862946,184.965317 352.041046,179.627441 351.140686,175.480545 
	C347.563599,159.005310 340.329773,144.486404 328.707794,132.355042 
	C322.965027,126.360558 316.439362,121.116127 308.967163,114.355423 
	C310.357391,107.821495 311.250824,99.416275 313.963013,91.645859 
	C322.938843,65.930069 341.151611,49.662884 367.469055,43.116013 
	C389.764191,37.569740 410.768585,42.004326 429.316315,55.235439 
	C445.450714,66.744980 455.751526,82.585030 458.983551,102.501228 
	C459.788483,107.461403 460.332520,112.463921 460.975525,117.899551 
z"/>
</svg>