<svg xmlns="http://www.w3.org/2000/svg" viewBox="0 0 33.642 33.851">
    <g transform="translate(-31.053 -3.959)">
        <g transform="translate(31.053 3.959)">
            <path class="a" d="M30.23,20.409H28.56c0-.231-.007-.459,0-.685.024-.7.055-1.39.081-2.085.034-.9.069-1.79.1-2.686a.57.57,0,0,0-.056-.26.693.693,0,0,1-.04-.555.733.733,0,0,1,.385-.417.275.275,0,0,0,.194-.281c0-.5.015-1.01.017-1.516,0-.782,0-1.564.005-2.346,0-.676.022-1.355.023-2.031A1.165,1.165,0,0,0,28.005,6.4c-.055.005-.141.043-.15.08a.211.211,0,0,0,.055.175c.24.236.493.459.731.7a.349.349,0,0,1,.095.221c0,.639-.014,1.277-.02,1.917-.008,1.139-.012,2.279-.02,3.418a.554.554,0,0,1-.007.1l-.826.179-2.725.585c-.1.021-.2.036-.293.058-.143.033-.19.113-.136.244a7.335,7.335,0,0,1,.485,2.845,13.57,13.57,0,0,0,.283,2.8,14.082,14.082,0,0,0,1.174,3.469,13.129,13.129,0,0,0,1.593,2.5c.2.247.436.471.617.73a2.671,2.671,0,0,1-1.814,4.1,4.241,4.241,0,0,1-1.36-.03c-.956-.09-1.912-.2-2.868-.3q-1.738-.189-3.475-.382c-.456-.049-.91-.1-1.366-.144-.062-.005-.16.011-.183.05a.214.214,0,0,0,.009.194,2.579,2.579,0,0,1-1.588,3.819,2.985,2.985,0,0,1-3.726-1.741,2.451,2.451,0,0,1,.644-2.567.3.3,0,0,0,.078-.208c0-.032-.116-.073-.181-.081q-1.477-.167-2.955-.327c-.842-.091-1.684-.174-2.526-.266-1.025-.11-2.049-.228-3.074-.336-.276-.029-.558-.019-.833-.052A2.787,2.787,0,0,1,1.257,25.85a2.718,2.718,0,0,1,1.6-2.825,4.168,4.168,0,0,0,.8-.566,12.855,12.855,0,0,0,3.815-4.946c.27-.612.486-1.251.7-1.881.109-.334.132-.7.246-1.028.155-.451.354-.888.545-1.327.082-.187.083-.238-.1-.337q-1.7-.927-3.4-1.851L1.293,8.819c-.312-.168-.625-.336-.935-.51a1.335,1.335,0,0,1-.235-.173.293.293,0,0,1,.01-.483,2.434,2.434,0,0,1,.545-.335q2.532-.976,5.067-1.93,3.365-1.266,6.732-2.521,2.88-1.076,5.761-2.148Q19.162.376,20.1.06a.953.953,0,0,1,.966.172C21.61.71,22.149,1.2,22.678,1.7q2.3,2.164,4.578,4.34c.078.074.157.12.263.065a1.364,1.364,0,0,1,1.744.521,1.918,1.918,0,0,1,.35,1.147c-.024,1.042-.014,2.085-.022,3.132,0,.792,0,1.584-.025,2.374a.461.461,0,0,0,.275.521.612.612,0,0,1,.276.74,1.44,1.44,0,0,0-.085.7c-.007.614.117,3.953.19,5.043A.481.481,0,0,1,30.23,20.409Z" transform="translate(-0.001 0.002)"></path>
            <path class="a" d="M38.394,11.653c.556.621,1.109,1.246,1.673,1.86.481.524.977,1.036,1.46,1.558a1.3,1.3,0,0,1,.21.295c.185.368.093.594-.29.682-.663.166-1.327.319-1.991.478-.382.093-.764.181-1.154.273V11.711Z" transform="translate(-8.187 -3.241)"></path>
        </g>
    </g>
</svg>