<?xml version="1.0" encoding="utf-8"?>
<!-- Svg Vector Icons : http://www.onlinewebfonts.com/icon -->
<!DOCTYPE svg PUBLIC "-//W3C//DTD SVG 1.1//EN" "http://www.w3.org/Graphics/SVG/1.1/DTD/svg11.dtd">
<svg version="1.1" xmlns="http://www.w3.org/2000/svg" xmlns:xlink="http://www.w3.org/1999/xlink" x="0px" y="0px" viewBox="0 0 256 256" enable-background="new 0 0 256 256" xml:space="preserve">
<metadata> Svg Vector Icons : http://www.onlinewebfonts.com/icon </metadata>
<g><g><g><path fill="#552583" d="M91.9,54.9c-2.1,1.3-4.8,4.5-5.9,7c-0.7,1.5-1,3.5-1.2,6.5c-0.1,2.4-0.3,4.3-0.4,4.3c-0.1,0-6.2-1.7-13.5-3.7c-8.7-2.4-14.2-3.7-15.7-3.7c-3.2,0-6.6,1.7-8.9,4.4c-1.8,2-2.3,3.3-6.9,17.3l-4.9,15.1H33c-1.6,0-7,3.6-7.5,5c-0.2,0.4-1.7,8.8-3.3,18.7c-2.9,17.7-3,18-5.1,22.4c-5.3,11.2-7.1,22-4.7,28.9c0.6,1.9,0.6,2-0.9,5.2c-1.2,2.3-1.6,3.6-1.3,4.4c0.8,3.4,6.9,9.4,11.9,11.9c6.6,3.3,6.5,3.3,32,3.4l23.1,0.1l11.3-5.7l11.3-5.7l5.1-0.2l5.1-0.2l11.2,5.4l11.2,5.4h30.8c30.5,0,30.8,0,37.5-1.2c19.5-3.3,34.1-8.9,39.7-15.3c2.9-3.3,5.7-10.7,5.7-15.1c0-4.4-3.8-10.9-8.3-14.2c-5.3-3.9-15.4-7.9-27.7-10.9c-5.3-1.3-8.3-2.5-25.8-10.5l-19.8-9.1l-6.2-0.9c-3.4-0.5-6.4-0.8-6.6-0.7c-0.2,0.1-1-0.2-1.7-0.7c-1.8-1.4-5.6-2.4-8.7-2.2l-2.7,0.1l-0.8-3c-1.5-5.8-2.6-7.1-5.5-7.2c-1.5,0-2.4-0.6-5.7-3.4c-3.8-3.2-4-3.4-4.5-6.1c-0.6-2.7-1.5-4-3.7-5.2c-1-0.5-1-0.6-0.4-1.3c2.5-2.7,2.1-6.6-0.8-9.8c-1.2-1.2-6-8.2-10.9-15.5c-4.8-7.3-9.3-13.7-9.9-14.1C94.9,53.8,93.6,53.9,91.9,54.9z M98.8,70.8c2.7,4.1,4.9,7.4,4.8,7.4s-1.1-0.4-2.2-0.9c-1.1-0.5-3.6-1.3-5.6-1.7c-3.9-0.9-4.1-1.1-4.1-5.5c0-2.2,1.2-6.8,1.8-6.8C93.7,63.3,96.1,66.7,98.8,70.8z M70.8,76.4c8.3,2.3,18.1,5,21.8,5.9c9.1,2.3,9.1,2.2,11.3,11.7c2,8.4,2,9.8,0.6,11.1c-0.6,0.5-4.4,2.9-8.4,5.3c-4,2.4-7.5,4.7-7.8,5.2c-0.7,1.3-0.6,3.1,0.4,4.1c1,1,13.5,5.2,16.6,5.5c1.5,0.1,2.1,0,2.9-0.8c1.3-1.3,1.3-3-0.2-7.8l-1.2-3.9l2-1.8c1.1-1,2.5-2.7,2.9-3.9s0.9-2.1,1-2.2c0.1-0.1,1,0.6,2,1.4l1.9,1.6l-0.3,4.3c-0.3,5,0.2,7.4,1.9,8c1.5,0.6,3,0.1,8.5-2.8c2.6-1.4,4.8-2.4,5-2.2s0.8,2.1,1.4,4.4c0.7,2.3,1.7,4.6,2.2,5.2c0.9,1,1.2,1.1,5.3,0.7c4.1-0.3,4.4-0.3,6.2,0.9c1.1,0.7,2.8,2.6,4.1,4.6l2.2,3.4l12.6,2.4l12.6,2.4l11.4,5.2c9.8,4.5,12.4,5.5,18.5,7c13.9,3.5,13.3,3.6-24.5,4.6c-17.1,0.5-31.2,1-31.4,1.1c-0.1,0.2-0.2,0.5,0,0.6c0.4,0.3,45.1,6.9,51.5,7.6c12.9,1.3,23.2,0,27.4-3.5c1.3-1.1,1.5-1.1,2.6-0.4c0.7,0.4,1.5,1.3,2,2c0.4,0.7,1.2,1.7,1.7,2.3c0.5,0.6,0.8,1.3,0.7,1.7c-0.5,1.3-9.6,3.1-21.2,4.1c-9.4,0.8-30.3,0.8-35.6,0c-13.9-2.1-29.9-6.4-46.6-12.7c-3.3-1.2-4.3-1-5,1.3c-1.9,6.3-3.3,8-7.5,9.3c-3.3,1-8.2,0.7-12.6-0.7c-6.4-2.2-17.2-9.1-29-18.7c-2.4-2-4.8-3.6-5.3-3.6c-1.6,0-9.7,2.8-10.6,3.7c-0.7,0.7-0.7,1.1-0.3,4.3c0.9,6.5-0.7,10.6-5.3,13.1c-1.7,0.9-2.6,1-8.6,1c-5.6,0-7.4-0.2-10.5-1.1c-7.3-2.1-11.9-5.6-13.4-10.2c-1.1-3.3-0.9-12.2,0.2-12.2c0.2,0,0.4,0.3,0.4,0.7c0,0.8,4.3,7.4,6.6,10c4,4.6,9,7.9,14.3,9.5c3.4,1,5.4,0.5,7.9-2.2c2.2-2.4,2-1.7,3.5-15.5c0.7-5.7,1.4-10.7,1.7-11.1c0.8-1,3.1-0.7,6.3,0.8c1.6,0.8,9.9,6.6,18.4,13.1c8.5,6.4,16,11.9,16.7,12.3c1.8,0.9,4,0.8,5.9-0.3c4-2.5,33.1-24.7,33.3-25.6c0.8-2.4-5.1-5.8-13.7-7.9c-4.1-1-17.3-2.1-19.5-1.7c-0.9,0.2-34.9-0.8-35.2-1.1c0,0-0.5-0.6-1-1.3l-1-1.3l11-9.6c6-5.3,11.3-10,11.6-10.6c1.2-2,0.8-4.4-1.4-8.2c-1.2-2-2.6-4-3.2-4.4c-1.2-0.8-27.6-6.4-30.3-6.4c-2.8,0-4.1,1.3-9.1,9.6c-2.8,4.7-4.9,8.5-5,9.5c-0.3,1.8,0.2,2.9,6.1,13.6l3.5,6.4l-1.2,2c-0.9,1.5-1.5,2.1-2.6,2.3c-1.6,0.4-12.8,4.1-17.2,5.8c-2.4,0.9-2.8,1.3-4.4,4c-1,1.7-1.8,2.9-1.9,2.9c-0.2-0.2,4.7-29,5.1-29.5c0.3-0.5,0.6-0.5,1.5,0.1c1.5,1,4,0.9,5-0.1c0.5-0.5,3.3-8.6,6.4-17.9c3-9.4,5.8-17.5,6.1-17.9c0.9-1.1,2.5-2,4.1-2.3C55.6,72.2,62.5,74.1,70.8,76.4z M72.8,91.2c6.6,1.3,12.6,2.6,13.1,2.8c0.9,0.4,3.9,4.9,3.9,6c0,0.2-5.3,5.1-11.9,10.8c-6.6,5.7-12.1,10.7-12.4,11.3c-0.4,0.7-0.3,1.3,0.6,2.5c2,2.7,5,5.8,6.1,6c1.4,0.3,32.2,1.2,39.6,1.2c6.6,0,13.7,0.9,18.4,2.3c5.7,1.7,6.4,0.8-9.9,13c-8,6-14.9,10.9-15.2,10.9c-0.4,0-7.9-5.4-16.6-11.9c-16.8-12.6-20.9-15.1-25.3-15.5c-2.3-0.2-2.6-0.1-4.9,1.7c-1.3,1.1-2.4,2.1-2.4,2.3s-0.7,5.8-1.4,12.4c-1.3,11.1-1.4,12.1-2.4,12.9c-3.2,2.6-12.9-3.8-18.3-12.2c-1.2-1.9-2.2-3.9-2.2-4.4c0-0.5,0.6-2,1.3-3.1c1.3-2.1,1.4-2.2,8.1-4.6c3.8-1.3,8.2-2.8,10-3.3c1.9-0.5,3.7-1.3,4.5-2.1c1.3-1.3,4.1-6.1,4.1-7.1c0-0.3-2-4.1-4.4-8.6c-2.4-4.4-4.7-8.6-5.1-9.4l-0.7-1.4l4.2-6.9c5.1-8.4,4.9-8.2,6.1-7.9C60.3,88.7,66.2,89.9,72.8,91.2z M111.6,90.3c0,0.8-0.8,1-1.1,0.3c-0.1-0.4,0-0.7,0.4-0.7C111.3,89.8,111.6,90,111.6,90.3z M122.7,113.9c-0.7,0.9-1.3,0.7-1.3-0.6c0-1,0.1-1.1,0.9-0.6C123,113.1,123.1,113.4,122.7,113.9z M80.3,155.6c10.4,8.3,20.9,14.8,27.7,17.3c3,1.1,4.2,1.2,9.3,1.3c5.2,0,6.1-0.1,8.2-1.1c2.9-1.3,6.3-4.8,7.4-7.5c0.9-2.3,0.1-2.4,10.4,1.1c13.9,4.8,28.8,8.4,39.6,9.5c13.1,1.4,41.3,0,51.9-2.7c1.9-0.5,3.3-0.7,3.3-0.4c0,0.2-0.4,1.4-0.9,2.6c-0.9,2-1.3,2.3-4.3,3.7c-7.8,3.4-16.4,4.7-25.3,3.9c-7.5-0.7-9-1.2-13.9-3.7c-4.4-2.2-4.4-2.2-9.1-2.2c-5.3,0-5-0.1-15.7,5.7c-6.6,3.6-18.9,6.1-36.5,7.3l-4.2,0.3l-8.4-4l-8.4-4l-6.9,0.4l-6.9,0.3l-8.6,4.3l-8.6,4.3l-9.5-0.2c-6.9-0.1-11.1-0.5-15.3-1.3c-10.8-1.9-22.5-5.9-31-10.5c-3.3-1.8-3.9-2.3-4.6-4c-1.6-4-1.4-10.6,0.5-17.1l0.7-2.6l0.8,2.2c3,8,11.4,12.9,24.4,14.3c11,1.2,18.6-1.9,21.8-8.8c0.8-1.6,1-3.2,1.1-6.8l0.1-4.6l2.2-0.8c1.2-0.4,2.5-0.8,2.7-0.8C74.5,151.2,77.2,153.2,80.3,155.6z M187.9,182.4c0.9,0.2,2.9,1.2,4.4,2.1c3.7,2.3,9.3,3.4,18.1,3.8c6.8,0.3,6.9,0.3,4.9,0.9c-3.5,1.1-13.9,3.3-19.1,4c-3.9,0.6-9.3,0.7-25.8,0.7c-11.5,0-20.7-0.1-20.6-0.2c0.1-0.1,2.8-0.7,6.1-1.4c7.1-1.4,14.1-3.9,17.3-6C179.3,182.3,183.6,181.1,187.9,182.4z M37.3,191c3.2,1.1,7,2.3,8.4,2.6c2.5,0.6,2.5,0.6-5.1,0.7c-8.6,0-11.2-0.4-15.8-2.7c-2.7-1.4-7-5.2-7-6.3c0-0.3,0.3-1,0.7-1.5c0.7-0.9,0.8-0.9,6.9,2.1C28.7,187.7,34,190,37.3,191z"/></g></g></g>
</svg>