<?xml version="1.0" encoding="UTF-8" standalone="no"?>
<!DOCTYPE svg PUBLIC "-//W3C//DTD SVG 20010904//EN" "http://www.w3.org/TR/2001/REC-SVG-20010904/DTD/svg10.dtd">
<svg version="1.0" xmlns="http://www.w3.org/2000/svg" viewBox="0 0 1225.000000 1280.000000" preserveAspectRatio="xMidYMid meet">
<metadata>
Created by potrace 1.15, written by Peter Selinger 2001-2017
</metadata>
<g transform="translate(0.000000,1280.000000) scale(0.100000,-0.100000)" fill="#aba" stroke="none">
<path d="M11682 12707 c-119 -51 -218 -100 -223 -110 -12 -21 68 -226 112 -287 33 -46 177 -127 241 -136 58 -8 132 16 238 75 81 46 85 50 84 82 -1 47 -14 79 -106 269 -80 165 -102 200 -122 200 -6 0 -107 -42 -224 -93z"/>
<path d="M3210 12396 c-93 -30 -168 -94 -211 -182 -33 -67 -33 -177 -1 -249 62 -136 224 -222 368 -196 114 21 207 89 255 186 20 41 24 65 24 135 0 72 -4 93 -27 136 -35 67 -115 138 -184 163 -61 23 -165 27 -224 7z"/>
<path d="M9891 11651 c-11 -11 -24 -35 -29 -53 -118 -423 -187 -655 -196 -664 -6 -6 -132 -62 -281 -123 -148 -62 -278 -122 -287 -133 -10 -11 -18 -33 -18 -48 0 -15 8 -34 18 -43 9 -8 140 -69 290 -135 150 -65 275 -121 278 -124 2 -3 46 -161 97 -351 52 -196 100 -355 109 -367 22 -25 79 -27 100 -2 9 9 61 174 115 367 l100 350 279 117 c163 69 286 127 297 139 20 25 22 58 5 82 -7 10 -137 71 -288 138 -151 66 -279 124 -283 129 -5 4 -50 164 -101 354 -57 213 -100 354 -111 366 -23 25 -69 26 -94 1z"/>
<path d="M5463 9451 c-11 -12 -59 -164 -117 -369 l-99 -349 -273 -114 c-151 -63 -283 -121 -293 -129 -11 -8 -23 -27 -26 -41 -12 -49 23 -71 314 -197 l274 -120 92 -343 c51 -190 97 -354 103 -365 21 -39 78 -46 107 -14 11 12 59 163 116 367 54 190 100 348 102 349 2 2 129 57 282 121 305 129 325 142 305 200 -12 34 -4 30 -375 192 l-210 92 -90 340 c-49 188 -98 354 -107 370 -14 23 -25 29 -52 29 -22 0 -42 -7 -53 -19z m57 -335 c0 -22 117 -451 129 -473 6 -13 88 -54 223 -113 117 -51 216 -96 221 -99 4 -4 -87 -47 -204 -96 -116 -48 -219 -95 -230 -104 -13 -11 -40 -88 -84 -246 -76 -267 -76 -267 -83 -240 -24 107 -124 462 -134 477 -7 11 -109 61 -227 113 -117 52 -216 96 -218 99 -3 3 5 10 18 15 76 28 397 167 415 178 17 11 36 65 90 258 61 216 84 279 84 231z"/>
<path d="M8479 9346 c-261 -73 -381 -365 -239 -584 142 -220 455 -254 639 -71 177 177 152 453 -54 594 -98 68 -234 91 -346 61z m235 -160 c158 -77 189 -271 64 -396 -98 -99 -278 -99 -382 -2 -73 69 -95 185 -52 278 64 137 227 190 370 120z"/>
<path d="M3060 8691 c-70 -22 -95 -36 -147 -78 -192 -154 -188 -448 6 -602 210 -165 520 -94 634 146 29 61 32 77 32 158 0 80 -4 97 -31 155 -88 186 -303 283 -494 221z"/>
<path d="M11713 8285 c-103 -32 -204 -121 -251 -223 -23 -49 -27 -70 -27 -152 0 -86 3 -101 31 -160 124 -259 476 -314 673 -105 29 30 64 81 79 112 23 50 27 71 27 153 -1 84 -4 102 -29 154 -51 104 -135 180 -243 217 -66 22 -195 25 -260 4z m252 -153 c89 -46 139 -126 139 -222 0 -228 -298 -338 -461 -170 -132 135 -71 350 117 411 44 15 162 4 205 -19z"/>
<path d="M9695 7916 c-13 -13 -29 -44 -35 -68 -7 -24 -51 -180 -98 -348 l-87 -304 -280 -118 c-275 -116 -315 -138 -315 -179 0 -43 29 -60 305 -180 154 -68 281 -123 283 -124 1 -1 45 -161 97 -356 74 -277 99 -358 116 -371 37 -31 82 -21 103 21 7 14 55 175 106 356 51 182 98 335 104 341 6 7 133 62 281 124 149 61 278 121 288 132 21 25 22 66 1 89 -8 9 -141 72 -295 139 -153 68 -279 125 -279 129 -1 30 -191 706 -201 716 -29 26 -68 27 -94 1z"/>
<path d="M819 7521 c-18 -14 -43 -88 -123 -371 l-101 -352 -275 -115 c-272 -113 -320 -140 -320 -181 0 -41 36 -62 310 -182 l280 -123 15 -51 c8 -28 48 -179 90 -336 41 -157 80 -297 86 -311 22 -56 96 -63 123 -11 7 15 55 176 106 357 51 182 98 335 104 342 6 7 135 64 286 128 151 63 281 123 288 132 16 22 16 64 0 86 -7 9 -136 70 -287 136 -151 66 -278 124 -282 128 -5 5 -49 160 -98 346 -50 186 -95 347 -101 357 -22 41 -65 50 -101 21z m106 -562 c34 -129 66 -241 69 -250 9 -20 9 -20 254 -128 112 -49 200 -91 195 -94 -4 -3 -91 -40 -193 -82 -102 -42 -202 -86 -222 -96 -42 -21 -35 -3 -120 -309 -28 -102 -54 -188 -58 -193 -3 -4 -34 98 -69 227 -35 129 -69 244 -77 254 -7 11 -110 61 -229 113 -118 52 -215 96 -215 99 0 3 97 45 215 94 118 50 221 96 229 104 8 8 45 124 83 258 37 133 69 241 71 239 2 -1 32 -108 67 -236z"/>
<path d="M7482 7069 c-13 -13 -55 -147 -117 -367 -54 -191 -103 -350 -109 -354 -6 -4 -131 -58 -278 -119 -147 -62 -277 -121 -288 -131 -25 -24 -26 -70 -1 -92 11 -10 142 -71 292 -137 150 -66 274 -121 276 -123 2 -2 40 -138 84 -302 44 -165 86 -323 95 -352 25 -89 68 -114 118 -69 21 18 40 72 106 307 45 157 90 314 100 350 l20 65 275 115 c152 63 285 123 296 133 20 19 25 57 10 86 -6 10 -129 70 -294 142 l-285 123 -93 351 c-99 370 -109 395 -163 395 -14 0 -34 -9 -44 -21z"/>
<path d="M11315 6102 c-116 -40 -205 -118 -253 -220 -24 -50 -27 -70 -27 -157 0 -91 3 -105 30 -160 81 -161 268 -258 436 -227 141 26 253 109 312 232 27 58 31 75 31 155 1 81 -2 97 -31 157 -36 77 -108 155 -174 189 -99 50 -231 63 -324 31z m255 -158 c66 -36 106 -85 126 -153 26 -86 2 -172 -67 -240 -41 -41 -72 -57 -144 -72 -198 -40 -372 159 -296 337 63 147 238 206 381 128z"/>
<path d="M5593 5511 c-105 -36 -188 -110 -237 -211 -28 -59 -31 -74 -31 -160 0 -85 3 -102 31 -160 119 -251 455 -313 657 -121 187 177 159 468 -58 606 -27 18 -72 39 -99 48 -66 23 -195 21 -263 -2z m262 -148 c89 -47 139 -127 139 -223 0 -74 -22 -125 -76 -177 -102 -98 -282 -97 -381 2 -56 57 -72 95 -72 170 0 109 48 183 150 232 42 20 61 23 125 20 50 -2 88 -11 115 -24z"/>
<path d="M2159 5416 c-115 -32 -218 -118 -267 -224 -24 -50 -27 -69 -27 -157 0 -87 3 -107 27 -157 101 -217 370 -301 583 -182 141 79 226 252 196 401 -46 233 -284 381 -512 319z m222 -153 c166 -73 204 -276 77 -403 -78 -79 -215 -99 -314 -48 -186 97 -193 329 -13 441 67 41 171 45 250 10z"/>
<path d="M11458 4833 c-9 -10 -46 -115 -82 -233 -37 -118 -70 -218 -74 -221 -4 -3 -88 -37 -187 -74 -180 -68 -225 -94 -225 -134 0 -40 38 -63 225 -139 l190 -77 52 -175 c28 -96 56 -194 62 -218 6 -23 20 -51 31 -62 25 -25 72 -26 95 -1 9 11 48 118 85 237 l67 217 186 72 c102 39 195 79 206 90 26 23 27 69 3 93 -11 11 -103 52 -205 93 l-186 74 -51 175 c-72 244 -80 268 -97 285 -20 21 -76 19 -95 -2z"/>
<path d="M9449 4491 c-20 -16 -42 -83 -124 -371 l-100 -352 -276 -116 c-151 -65 -283 -122 -292 -127 -26 -17 -32 -67 -10 -93 11 -13 130 -71 292 -142 151 -67 277 -122 279 -124 2 -2 43 -154 93 -337 101 -377 102 -380 130 -397 27 -17 76 -6 90 21 7 11 56 176 110 365 54 189 99 345 101 346 2 1 126 54 276 117 151 63 282 122 293 132 20 19 25 57 10 86 -6 10 -130 70 -294 142 l-284 124 -18 70 c-104 404 -175 640 -195 657 -28 23 -52 23 -81 -1z m101 -552 c33 -123 65 -236 71 -250 13 -32 4 -27 258 -138 186 -81 203 -91 180 -100 -13 -6 -108 -46 -210 -89 -102 -42 -196 -84 -208 -92 -17 -12 -34 -56 -77 -205 -83 -292 -85 -297 -89 -294 -2 2 -31 108 -65 234 -34 127 -67 239 -75 251 -8 13 -94 56 -229 115 -119 52 -216 96 -216 99 0 3 96 45 213 94 116 49 219 95 228 102 8 8 46 124 84 258 39 135 71 243 73 241 2 -1 30 -103 62 -226z"/>
<path d="M1579 3876 c-151 -58 -228 -153 -237 -291 -11 -175 120 -320 308 -342 58 -7 156 18 211 53 102 64 154 158 154 274 -1 66 -5 83 -35 138 -59 112 -159 173 -290 179 -47 2 -88 -2 -111 -11z"/>
<path d="M3084 3692 c-203 -60 -332 -272 -281 -465 82 -313 485 -411 706 -172 118 128 135 328 39 471 -99 146 -294 216 -464 166z m187 -133 c87 -27 141 -72 175 -144 42 -88 24 -196 -44 -268 -101 -107 -287 -110 -390 -7 -76 75 -99 188 -57 275 55 113 202 180 316 144z"/>
<path d="M4343 3247 c-29 -13 -30 -15 -137 -396 -52 -183 -96 -334 -98 -336 -2 -2 -126 -54 -276 -117 -150 -63 -282 -122 -293 -131 -24 -21 -26 -79 -3 -98 10 -8 141 -68 293 -135 l276 -121 96 -358 c69 -257 102 -362 115 -372 26 -19 70 -16 91 6 11 12 58 161 117 370 l99 350 221 92 c355 148 363 152 371 188 12 56 -7 68 -302 197 -153 67 -281 128 -285 135 -4 8 -48 166 -98 353 -49 186 -97 347 -105 356 -20 22 -55 29 -82 17z"/>
<path d="M7434 2845 c-149 -47 -260 -171 -284 -318 -42 -259 205 -495 469 -448 133 24 240 99 299 208 141 266 -61 576 -372 572 -39 -1 -89 -7 -112 -14z m242 -153 c92 -47 143 -128 144 -225 0 -70 -16 -112 -64 -165 -156 -172 -466 -66 -466 160 0 117 61 201 179 245 51 19 156 11 207 -15z"/>
<path d="M7263 1090 c-128 -19 -251 -111 -307 -230 -28 -58 -31 -75 -31 -160 0 -86 3 -101 31 -160 75 -155 214 -236 394 -228 70 3 97 9 152 35 251 119 314 418 129 616 -93 100 -231 147 -368 127z"/>
<path d="M2519 771 c-106 -34 -201 -116 -252 -217 -9 -17 -21 -60 -28 -97 -36 -194 97 -389 301 -442 192 -50 395 45 478 223 24 50 27 70 27 157 0 88 -3 107 -27 157 -86 184 -307 281 -499 219z m243 -151 c127 -65 181 -202 127 -320 -45 -99 -132 -154 -244 -154 -243 -1 -359 263 -189 428 78 76 211 96 306 46z"/>
</g>
</svg>