<?xml version="1.0" standalone="no"?>

<!DOCTYPE svg PUBLIC "-//W3C//DTD SVG 20010904//EN" "http://www.w3.org/TR/2001/REC-SVG-20010904/DTD/svg10.dtd">

<svg version="1.0" xmlns="http://www.w3.org/2000/svg" viewBox="0 0 340.000000 270.000000" preserveAspectRatio="xMidYMid meet">

    <g transform="translate(0.000000,270.000000) scale(0.100000,-0.100000)" fill="#861071" stroke="none">

        <path d="M1557 2629 c-347 -34 -695 -231 -916 -519 -109 -141 -213 -359 -241 -502 -6 -29 -13 -63 -16 -75 l-4 -23 1325 0 1325 0 -4 23 c-3 12 -9 45 -15 74 -10 53 -71 223 -99 278 -206 410 -604 690 -1057 744 -101 12 -170 12 -298 0z"/>

        <path d="M377 1483 c-3 -5 -6 -44 -8 -88 l-4 -80 1343 -3 1343 -2 -6 77 c-4 43 -8 84 -10 91 -4 9 -278 12 -1329 12 -729 0 -1327 -3 -1329 -7z"/>

        <path d="M364 1238 c3 -29 6 -65 6 -80 l0 -28 1334 0 1333 0 7 53 c3 28 6 64 6 80 l0 27 -1346 0 -1347 0 7 -52z"/>

        <path d="M381 1068 c0 -13 6 -45 13 -73 l11 -50 1300 0 1299 0 13 60 c7 33 12 66 13 73 0 9 -271 12 -1325 12 l-1325 0 1 -22z"/>

        <path d="M435 858 c4 -13 14 -42 22 -65 l16 -43 1231 0 1231 0 23 55 c12 31 22 60 22 65 0 7 -452 10 -1276 10 l-1275 0 6 -22z"/>

        <path d="M530 647 c0 -7 13 -34 30 -60 l30 -47 1114 0 1115 0 19 28 c11 15 27 42 36 59 l17 33 -1181 0 c-963 0 -1180 -2 -1180 -13z"/>

        <path d="M691 412 c7 -9 29 -34 48 -54 l35 -38 931 0 931 0 47 48 c26 26 47 51 47 55 0 4 -462 7 -1026 7 -971 0 -1025 -1 -1013 -18z"/>

        <path d="M1005 145 l70 -45 628 0 629 0 69 40 c38 23 69 43 69 45 0 3 -345 5 -767 5 l-768 -1 70 -44z"/>

    </g>

</svg>