<?xml version="1.0" encoding="utf-8"?>
<!-- Svg Vector Icons : http://www.onlinewebfonts.com/icon -->
<!DOCTYPE svg PUBLIC "-//W3C//DTD SVG 1.1//EN" "http://www.w3.org/Graphics/SVG/1.1/DTD/svg11.dtd">
<svg version="1.1" xmlns="http://www.w3.org/2000/svg" xmlns:xlink="http://www.w3.org/1999/xlink" x="0px" y="0px" viewBox="0 0 256 256" enable-background="new 0 0 256 256" fill="#6594c3" alignment-baseline="">
<metadata> Svg Vector Icons : http://www.onlinewebfonts.com/icon </metadata>
<g><g><g><path d="M26.4,60.1C17.5,62,10,67.4,10,72c0,5.6,6.5,8.8,10.5,5c6.6-6.2,19.2-6.2,25.8,0.1C52,82.5,59,85,67.9,85c9.1,0,15.1-2.2,22-8.2c7.4-6.5,18.5-5.9,26.5,1.3c1.6,1.5,4.8,3.6,7.1,4.7c3.8,1.8,5,1.9,13.1,1.9c8.2,0,9.3-0.1,13.3-2.1c2.4-1.1,5.7-3.2,7.3-4.7c4.2-3.7,8.4-5.5,13.2-5.5c5.6,0,9.3,1.2,12.5,4c4.5,3.9,7,5.4,12,7.1c4,1.3,6,1.6,11.9,1.3c8.8-0.4,13.7-2.2,19.5-7.1c4.5-3.8,8.2-5.3,12.7-5.3c5.7,0,9.1-6.3,5.6-10.6c-2.1-2.6-5.3-3-11.8-1.7c-5.9,1.3-10.1,3.4-15.2,7.8c-3.9,3.3-9.2,4.9-14.6,4.3c-4.3-0.5-7.5-2.1-11.4-5.6c-6.2-5.6-16.5-8.5-25.3-7c-6,1-12.3,3.8-16,7.2c-3.9,3.5-6.8,4.9-11.4,5.3c-5.7,0.6-11.1-1.3-16-5.4c-4.9-4.2-8.8-5.9-15.7-7.1c-9-1.5-19.3,1.3-25.6,7c-8.2,7.3-18.1,7.6-26.3,0.8c-5.3-4.4-8.7-6.1-14.7-7.4C34.7,58.9,31.9,58.9,26.4,60.1z"/><path d="M27.7,96.9c-5,0.9-11.6,4.1-14.8,7.3c-3.4,3.3-3.8,6.4-1,9.5c2.2,2.6,6.2,2.8,8.8,0.5c2.8-2.6,6.5-4.1,11.1-4.5c6-0.6,10.2,0.8,14.9,4.8c2.2,1.9,5.8,4.2,8,5.3c3.7,1.8,4.9,1.9,13.4,1.9c8.5,0,9.6-0.1,13.4-2c2.2-1,5.9-3.4,8.1-5.3c4.7-4,8.9-5.3,14.8-4.7c4.9,0.4,7.9,1.8,11.9,5.3c1.6,1.4,4.8,3.5,7.2,4.6c4,1.9,5.1,2.1,13.3,2.1s9.3-0.1,13.2-2c2.4-1.1,6-3.4,8-5.1c4.4-3.7,7.9-5,12.9-5.1c5.4,0,8.8,1.2,12.5,4.4c7.6,6.7,13.1,8.5,23.7,8.1c8.7-0.3,13.7-2.2,18.8-6.8c3.9-3.4,8.7-5.6,12.6-5.6c6.6,0,9.9-6.2,5.9-10.9c-1.7-1.9-2.2-2.1-6.6-1.9c-6.3,0.2-12.3,2.4-17.4,6.3c-5.6,4.4-8.8,5.9-12.9,6.4c-5.6,0.5-10.4-1-14.8-4.8c-5-4.3-10-6.6-16.4-7.6c-9.2-1.4-19.3,1.3-25.5,6.8c-5,4.5-7.4,5.4-14,5.4c-6.6,0-8.8-0.9-13.7-5.2c-6.3-5.7-16.4-8.5-25.6-7c-6.5,1-11.5,3.3-16.7,7.6c-7.9,6.7-18.1,6.6-25.7-0.1c-4.5-3.9-9.9-6.5-16-7.4C33.6,96,32.7,96,27.7,96.9z"/><path d="M28.3,134c-2.4,0.4-6.2,1.5-8.5,2.5c-9.2,4.2-12.4,10.6-7.4,14.8c3,2.6,4.5,2.4,9.7-1c8.5-5.7,17.6-5,25.4,2c6.2,5.5,16.4,8.2,25.5,6.8c6.4-1,11.4-3.3,16.3-7.6c4.1-3.6,8.1-5,13.3-5c4.8,0,7.9,1.3,13.2,5.6c6.8,5.3,12.5,7.3,21.1,7.3c7.9,0,13.4-1.9,19.1-6.3c5.6-4.4,8.8-5.9,12.9-6.4c5.6-0.5,10.4,1,14.8,4.8c5.1,4.4,10,6.6,16.8,7.6c9.1,1.4,18.9-1.3,25.2-6.8c3.7-3.3,6.8-4.9,10.8-5.4c5.6-0.8,6.5-1.1,8.1-2.7c3-3.2,1-9.6-3.3-10.4c-3.1-0.6-10.9,0.8-15.1,2.7c-2.2,1-5.6,3.2-7.6,4.9c-4.5,3.7-7.9,5-13,5.1c-5.2,0-9.4-1.6-13.5-5.3c-6.7-5.9-15.7-8.5-25.7-7.3c-6.2,0.8-11.6,3.1-16.2,7.1c-4.8,4.2-9.1,5.7-14.9,5.3c-5.3-0.4-8.5-1.9-12.5-5.5c-5.6-5-11.9-7.1-20.9-7c-9,0-14.9,2.4-22.1,8.7c-3,2.7-6.8,4-11.7,4c-5.3,0-8.3-1.2-13.7-5.6C46.5,135,38.2,132.7,28.3,134z"/><path d="M23.6,172.1c-12.3,4-17.7,13.4-10.1,17.4c2.5,1.4,4.2,1,7.6-1.4c4.6-3.3,9-4.7,14-4.2c5,0.4,8.3,1.9,11.9,5.4c3.3,3.1,9.7,6.1,15.6,7c8.7,1.6,19.4-1.3,25.7-6.9c3.9-3.5,7-5,11.4-5.6c5.6-0.7,10.7,0.9,15.1,4.7c12.8,10.9,30.5,10.9,43.3,0c4.5-3.9,9.5-5.4,15.1-4.7c4.3,0.5,7.5,2.1,11.4,5.6c6.2,5.5,17.1,8.5,25.7,7c5.8-1,12-3.9,15.7-7.2c4-3.6,7-4.9,11.9-5.3c5.4-0.5,8-2.6,8-6.5c0-1.9-0.6-3.3-1.9-4.6c-1.8-1.8-2.2-1.9-7.6-1.6c-6.8,0.4-12.8,2.8-17.4,7c-4.2,3.7-8.4,5.5-13.2,5.5c-5.8,0-9.1-1.1-12.9-4.4c-7.6-6.6-13.5-8.5-24.1-8.1c-8.5,0.4-13.1,2.2-19.2,7.4c-4.3,3.7-7.8,5-13.1,5s-8.8-1.3-13.1-5c-2.2-1.9-5.8-4.2-8-5.3c-3.7-1.7-5-1.9-13-1.9c-7.9,0-9.3,0.2-13,1.9c-2.2,1-5.9,3.3-8.2,5.1c-4.9,4-7.9,5.2-13.4,5.2s-8.5-1.2-13.4-5.2c-6.6-5.3-10.9-6.8-20-7.1C29.4,171.1,25.7,171.4,23.6,172.1z"/></g></g></g>
</svg>